<svg xmlns="http://www.w3.org/2000/svg" viewBox="0 0 192 192" role="img" aria-label="app icon">
  <defs>
    <linearGradient id="g" x1="0%" y1="0%" x2="100%" y2="100%">
      <stop offset="0%" stop-color="#183f35" />
      <stop offset="100%" stop-color="#183f35" stop-opacity="0.88" />
    </linearGradient>
  </defs>
  <rect width="192" height="192" rx="34" fill="url(#g)" />
  <rect x="28" y="28" width="136" height="136" rx="22" fill="#f3d275" />
  <path d="M56 70h80a10 10 0 0 1 10 10v32a10 10 0 0 1-10 10H56a10 10 0 0 1-10-10V80a10 10 0 0 1 10-10z" fill="#183f35"/>
  <path d="M56 120h80a10 10 0 0 1 10 10v12a10 10 0 0 1-10 10H56a10 10 0 0 1-10-10v-12a10 10 0 0 1 10-10z" fill="#1f4350"/>
  <rect x="72" y="68" width="48" height="12" rx="6" fill="#f4f4ef"/>
</svg>
